<svg xmlns="http://www.w3.org/2000/svg" width="25" height="25" viewBox="0 0 375 63.004">
    <g xmlns="http://www.w3.org/2000/svg">
                <path data-name="Path 123100" d="M137.082 420.5a3.754 3.754 0 0 1-3.75-3.75.75.75 0 0 1 1.5 0 2.25 2.25 0 0 0 4.5 0 .75.75 0 0 1 1.5 0 3.754 3.754 0 0 1-3.75 3.75zm0 0" transform="translate(119.918 -372.844)" style="stroke:#fff;fill:#fff"/>
                <path data-name="Path 123101" d="M18.25 82H1.75a1.75 1.75 0 0 1-1.138-3.08A6.7 6.7 0 0 0 3 73.789V71a7 7 0 0 1 14 0v2.788a6.7 6.7 0 0 0 2.378 5.125A1.749 1.749 0 0 1 18.25 82zM10 65.5A5.506 5.506 0 0 0 4.5 71v2.788a8.2 8.2 0 0 1-2.91 6.27.249.249 0 0 0-.09.192.253.253 0 0 0 .25.25h16.5a.253.253 0 0 0 .25-.25.247.247 0 0 0-.088-.19 8.2 8.2 0 0 1-2.912-6.271V71a5.506 5.506 0 0 0-5.5-5.5zm0 0" transform="translate(247 -37.344)" style="stroke:#fff;fill:#fff"/>
                <path data-name="Path 123102" d="M198.3 5.813a.969.969 0 0 1-.969-.969V2.969a.969.969 0 0 1 1.938 0v1.875a.969.969 0 0 1-.969.969zm0 0" transform="translate(58.668 22.343)" style="stroke:#fff;fill:#fff"/>
            </g>
<path xmlns="http://www.w3.org/2000/svg" data-name="Path 123100" d="M137.082 420.5a3.754 3.754 0 0 1-3.75-3.75.75.75 0 0 1 1.5 0 2.25 2.25 0 0 0 4.5 0 .75.75 0 0 1 1.5 0 3.754 3.754 0 0 1-3.75 3.75zm0 0" transform="translate(119.918 -372.844)" style="stroke:#fff;fill:#fff"/>
<path xmlns="http://www.w3.org/2000/svg" data-name="Path 123101" d="M18.25 82H1.75a1.75 1.75 0 0 1-1.138-3.08A6.7 6.7 0 0 0 3 73.789V71a7 7 0 0 1 14 0v2.788a6.7 6.7 0 0 0 2.378 5.125A1.749 1.749 0 0 1 18.25 82zM10 65.5A5.506 5.506 0 0 0 4.5 71v2.788a8.2 8.2 0 0 1-2.91 6.27.249.249 0 0 0-.09.192.253.253 0 0 0 .25.25h16.5a.253.253 0 0 0 .25-.25.247.247 0 0 0-.088-.19 8.2 8.2 0 0 1-2.912-6.271V71a5.506 5.506 0 0 0-5.5-5.5zm0 0" transform="translate(247 -37.344)" style="stroke:#fff;fill:#fff"/>
<path xmlns="http://www.w3.org/2000/svg" data-name="Path 123102" d="M198.3 5.813a.969.969 0 0 1-.969-.969V2.969a.969.969 0 0 1 1.938 0v1.875a.969.969 0 0 1-.969.969zm0 0" transform="translate(58.668 22.343)" style="stroke:#fff;fill:#fff"/>
<g xmlns="http://www.w3.org/2000/svg">
                <path data-name="Path 123100" d="M137.082 420.5a3.754 3.754 0 0 1-3.75-3.75.75.75 0 0 1 1.5 0 2.25 2.25 0 0 0 4.5 0 .75.75 0 0 1 1.5 0 3.754 3.754 0 0 1-3.75 3.75zm0 0" transform="translate(119.918 -372.844)" style="stroke:#fff;fill:#fff"/>
                <path data-name="Path 123101" d="M18.25 82H1.75a1.75 1.75 0 0 1-1.138-3.08A6.7 6.7 0 0 0 3 73.789V71a7 7 0 0 1 14 0v2.788a6.7 6.7 0 0 0 2.378 5.125A1.749 1.749 0 0 1 18.25 82zM10 65.5A5.506 5.506 0 0 0 4.5 71v2.788a8.2 8.2 0 0 1-2.91 6.27.249.249 0 0 0-.09.192.253.253 0 0 0 .25.25h16.5a.253.253 0 0 0 .25-.25.247.247 0 0 0-.088-.19 8.2 8.2 0 0 1-2.912-6.271V71a5.506 5.506 0 0 0-5.5-5.5zm0 0" transform="translate(247 -37.344)" style="stroke:#fff;fill:#fff"/>
                <path data-name="Path 123102" d="M198.3 5.813a.969.969 0 0 1-.969-.969V2.969a.969.969 0 0 1 1.938 0v1.875a.969.969 0 0 1-.969.969zm0 0" transform="translate(58.668 22.343)" style="stroke:#fff;fill:#fff"/>
            </g>
</svg>